<?xml version="1.0" encoding="UTF-8" standalone="no"?>
<!-- Created with Inkscape (http://www.inkscape.org/) -->

<svg
   xmlns:dc="http://purl.org/dc/elements/1.1/"
   xmlns:cc="http://creativecommons.org/ns#"
   xmlns:rdf="http://www.w3.org/1999/02/22-rdf-syntax-ns#"
   xmlns:svg="http://www.w3.org/2000/svg"
   xmlns="http://www.w3.org/2000/svg"
   xmlns:sodipodi="http://sodipodi.sourceforge.net/DTD/sodipodi-0.dtd"
   xmlns:inkscape="http://www.inkscape.org/namespaces/inkscape"
   width="42.284172mm"
   height="25.129707mm"
   viewBox="0 0 149.82581 89.04227"
   id="svg5391"
   version="1.1"
   inkscape:version="0.91 r13725"
   sodipodi:docname="label-path.svg"
   inkscape:export-filename="/home/ruben/Documents/git/RUBENABIX/SITES/rubenabix.com/custom/images/label.png"
   inkscape:export-xdpi="70"
   inkscape:export-ydpi="70">
  <defs
     id="defs5393" />
  <sodipodi:namedview
     id="base"
     pagecolor="#ffffff"
     bordercolor="#666666"
     borderopacity="1.0"
     inkscape:pageopacity="0.0"
     inkscape:pageshadow="2"
     inkscape:zoom="1.4"
     inkscape:cx="22.558699"
     inkscape:cy="73.932649"
     inkscape:document-units="px"
     inkscape:current-layer="layer1"
     showgrid="false"
     fit-margin-top="0"
     fit-margin-left="0"
     fit-margin-right="0"
     fit-margin-bottom="0"
     inkscape:window-width="1920"
     inkscape:window-height="1031"
     inkscape:window-x="0"
     inkscape:window-y="0"
     inkscape:window-maximized="1" />
  <metadata
     id="metadata5396">
    <rdf:RDF>
      <cc:Work
         rdf:about="">
        <dc:format>image/svg+xml</dc:format>
        <dc:type
           rdf:resource="http://purl.org/dc/dcmitype/StillImage" />
        <dc:title></dc:title>
      </cc:Work>
    </rdf:RDF>
  </metadata>
  <g
     inkscape:label="Layer 1"
     inkscape:groupmode="layer"
     id="layer1"
     transform="translate(-59.372811,-516.4125)">
    <g
       transform="translate(-40.887371,166.0733)"
       id="g5328">
      <g
         transform="matrix(1.4457621,0,0,1.4826255,-45.448834,210.0458)"
         style="font-style:normal;font-variant:normal;font-weight:200;font-stretch:normal;font-size:39.99958038px;line-height:125%;font-family:Raleway;-inkscape-font-specification:'Raleway, Ultra-Light';text-align:start;letter-spacing:0px;word-spacing:0px;writing-mode:lr-tb;text-anchor:start;fill:#000000;fill-opacity:1;stroke:none;stroke-width:1px;stroke-linecap:butt;stroke-linejoin:miter;stroke-opacity:1"
         id="flowRoot5199">
        <path
           d="m 103.95996,123.82467 0,-28.399705 11.55988,0 q 1.71998,0 3.19996,0.759992 1.47999,0.719993 2.51998,1.95998 1.07999,1.199987 1.67998,2.759973 0.59999,1.51998 0.59999,3.11996 0,1.63999 -0.51999,3.15997 -0.52,1.51999 -1.47999,2.71997 -0.95999,1.15999 -2.31997,1.91998 -1.31999,0.72 -2.91997,0.83999 l 7.19992,11.15989 -0.95999,0 -7.19992,-11.15989 -10.55989,0 0,11.15989 -0.79999,0 z m 0.79999,-11.95988 11.03988,0 q 1.59999,0 2.87997,-0.67999 1.27999,-0.67999 2.15998,-1.75998 0.91999,-1.11999 1.39999,-2.51998 0.47999,-1.39998 0.47999,-2.87997 0,-1.51998 -0.55999,-2.91996 -0.56,-1.39999 -1.55999,-2.479978 -0.95999,-1.079989 -2.27997,-1.719982 -1.31999,-0.679993 -2.79997,-0.679993 l -10.75989,0 0,15.639833 z"
           style=""
           id="path8038" />
        <path
           d="m 135.19026,124.22466 q -6.67993,0 -6.67993,-9.5199 l 0,-11.63988 0.79999,0 0,11.63988 q 0,8.71991 5.87994,8.71991 1.47998,0 2.91996,-0.51999 1.43999,-0.56 2.63998,-1.47999 1.19998,-0.95999 2.07998,-2.27997 0.91999,-1.31999 1.39998,-2.87997 l 0,-13.19987 0.79999,0 0,19.1598 q 0,0.8 0.64,0.8 l 0,0.79999 q -0.44,0 -0.56,-0.08 -0.39999,-0.16 -0.63999,-0.56 -0.24,-0.43999 -0.24,-0.95999 l 0,-3.67996 q -1.35999,2.63997 -3.79996,4.15996 -2.43997,1.51998 -5.23994,1.51998 z"
           style=""
           id="path8040" />
        <path
           d="m 160.71686,124.22466 q -1.23999,0 -2.43997,-0.35999 -1.15999,-0.36 -2.23998,-0.99999 -1.03999,-0.64 -1.95998,-1.47999 -0.87999,-0.87999 -1.47998,-1.87998 l 0,4.31996 -0.8,0 0,-29.199696 0.8,0 0,13.279856 q 1.59998,-2.23997 3.67996,-3.67996 2.07997,-1.47998 4.79995,-1.47998 2.27997,0 4.07995,0.95999 1.79998,0.95999 2.99997,2.51997 1.23999,1.51999 1.87998,3.43997 0.68,1.91998 0.68,3.83996 0,2.11997 -0.76,4.07995 -0.75999,1.91998 -2.11997,3.39997 -1.35999,1.47998 -3.19997,2.35997 -1.79998,0.87999 -3.91996,0.87999 z m 0,-0.79999 q 1.99998,0 3.67996,-0.83999 1.71998,-0.87999 2.91997,-2.27998 1.23999,-1.39998 1.91998,-3.15996 0.67999,-1.79998 0.67999,-3.63996 0,-1.91998 -0.63999,-3.71997 -0.63999,-1.79998 -1.83998,-3.15996 -1.15999,-1.39999 -2.79997,-2.23998 -1.59998,-0.83999 -3.55996,-0.83999 -1.47999,0 -2.79997,0.51999 -1.27999,0.48 -2.35998,1.31999 -1.03999,0.83999 -1.87998,1.91998 -0.83999,1.07999 -1.43998,2.27998 l 0,7.55992 q 0.08,1.27998 0.87999,2.43997 0.83999,1.11999 2.03997,1.99998 1.19999,0.83999 2.59998,1.35999 1.39998,0.47999 2.59997,0.47999 z"
           style=""
           id="path8042" />
        <path
           d="m 184.41724,124.22466 q -2.03998,0 -3.87996,-0.83999 -1.79998,-0.87999 -3.15997,-2.35997 -1.35998,-1.51999 -2.15998,-3.47997 -0.79999,-1.99998 -0.79999,-4.23995 0,-2.19998 0.75999,-4.11996 0.76,-1.91998 2.07998,-3.35996 1.35999,-1.43999 3.11997,-2.23998 1.79998,-0.83999 3.83996,-0.83999 2.07998,0 3.87996,0.83999 1.83998,0.83999 3.15997,2.27998 1.35998,1.43998 2.15997,3.39996 0.8,1.95998 0.8,4.19996 l 0,0.43999 -18.99981,0 q 0.16,1.99998 0.91999,3.75996 0.8,1.71998 2.03998,2.99997 1.23999,1.27999 2.83997,2.03998 1.63999,0.71999 3.43997,0.71999 1.19998,0 2.31997,-0.32 1.15999,-0.31999 2.15998,-0.87999 0.99999,-0.59999 1.75998,-1.39998 0.75999,-0.79999 1.19999,-1.75998 l 0.75999,0.2 q -0.43999,1.07998 -1.27999,1.99997 -0.79999,0.87999 -1.91998,1.55999 -1.07998,0.63999 -2.39997,0.99999 -1.27999,0.39999 -2.63997,0.39999 z m 8.9599,-11.11988 q -0.11999,-2.07998 -0.87999,-3.83996 -0.75999,-1.75998 -1.99998,-2.99997 -1.19998,-1.27999 -2.79997,-1.99998 -1.59998,-0.71999 -3.43996,-0.71999 -1.83998,0 -3.43996,0.71999 -1.59999,0.71999 -2.83997,1.99998 -1.19999,1.27999 -1.91998,3.03997 -0.72,1.75998 -0.84,3.79996 l 18.15981,0 z"
           style=""
           id="path8044" />
      </g>
      <g
         style="font-style:normal;font-variant:normal;font-weight:bold;font-stretch:normal;font-size:56.40268707px;line-height:125%;font-family:Raleway;-inkscape-font-specification:'Raleway, Bold';text-align:start;letter-spacing:0px;word-spacing:0px;writing-mode:lr-tb;text-anchor:start;fill:#000000;fill-opacity:1;stroke:none;stroke-width:1px;stroke-linecap:butt;stroke-linejoin:miter;stroke-opacity:1"
         id="text5209">
        <path
           d="m 127.72829,438.81744 -7.55796,0 0,-16.58239 q 0,-3.55337 -1.24086,-5.18904 -1.24086,-1.63568 -3.44056,-1.63568 -1.12806,0 -2.31251,0.45122 -1.18446,0.45122 -2.25611,1.29726 -1.01525,0.78964 -1.86129,1.91769 -0.84604,1.12806 -1.24086,2.48172 l 0,17.25922 -7.55796,0 0,-29.555 6.82473,0 0,5.47106 q 1.63568,-2.82014 4.73782,-4.39941 3.10215,-1.57928 6.99394,-1.57928 2.76373,0 4.51221,1.01525 1.74848,1.01525 2.70733,2.65093 0.95885,1.63567 1.29726,3.72257 0.39482,2.0869 0.39482,4.23021 l 0,18.44367 z"
           style=""
           id="path8047" />
        <path
           d="m 142.36567,439.38147 q -2.1433,0 -4.00459,-0.67683 -1.86129,-0.73324 -3.21496,-1.9741 -1.35366,-1.29726 -2.1433,-2.98934 -0.73323,-1.69208 -0.73323,-3.72258 0,-2.08689 0.90244,-3.83538 0.95885,-1.80488 2.59452,-3.04574 1.69208,-1.24086 4.00459,-1.91769 2.31251,-0.73324 5.07625,-0.73324 1.97409,0 3.83538,0.33842 1.91769,0.33841 3.38416,0.95884 l 0,-1.69208 q 0,-2.93294 -1.69208,-4.51221 -1.63568,-1.57928 -4.90703,-1.57928 -2.36892,0 -4.62502,0.84604 -2.25611,0.84604 -4.62502,2.48172 l -2.31251,-4.79423 q 5.69667,-3.77898 12.29578,-3.77898 6.3735,0 9.87047,3.15855 3.55337,3.10215 3.55337,9.02443 l 0,9.19364 q 0,1.18446 0.39482,1.69208 0.45122,0.50762 1.41007,0.56403 l 0,6.4299 q -1.9177,0.39482 -3.32776,0.39482 -2.1433,0 -3.32776,-0.95884 -1.12805,-0.95885 -1.41007,-2.53812 l -0.16921,-1.63568 q -1.97409,2.59452 -4.79422,3.94819 -2.82014,1.35366 -6.03509,1.35366 z m 2.1433,-5.52746 q 1.91769,0 3.60977,-0.67683 1.74849,-0.67684 2.70733,-1.80489 1.24086,-0.95885 1.24086,-2.1433 l 0,-3.38416 q -1.35366,-0.50763 -2.93294,-0.78964 -1.57927,-0.33842 -3.04574,-0.33842 -2.93294,0 -4.79423,1.35367 -1.86129,1.29726 -1.86129,3.32776 0,1.91769 1.46647,3.21495 1.46647,1.24086 3.60977,1.24086 z"
           style=""
           id="path8049" />
        <path
           d="m 183.49557,439.38147 q -3.38416,0 -6.03509,-1.52287 -2.65093,-1.52287 -4.1738,-4.1738 l 0,5.13264 -6.59911,0 0,-41.17396 7.55796,0 0,16.808 q 1.57927,-2.70733 4.11739,-4.1738 2.59453,-1.52287 6.03509,-1.52287 2.87654,0 5.24545,1.24086 2.36891,1.24086 4.06099,3.32776 1.74849,2.0869 2.65093,4.90703 0.95884,2.82014 0.95884,5.92229 0,3.21495 -1.07165,5.97868 -1.01524,2.76373 -2.87653,4.85063 -1.86129,2.0305 -4.39941,3.21495 -2.53812,1.18446 -5.47106,1.18446 z m -2.0869,-6.42991 q 1.80488,0 3.32776,-0.67683 1.52287,-0.73323 2.59452,-1.91769 1.07165,-1.18446 1.63568,-2.76373 0.62043,-1.57928 0.62043,-3.38416 0,-1.80489 -0.56403,-3.44057 -0.56403,-1.63567 -1.63568,-2.87653 -1.01525,-1.24086 -2.42531,-1.9741 -1.41007,-0.73323 -3.10215,-0.73323 -2.53812,0 -4.56862,1.69208 -1.97409,1.63568 -3.04574,4.06099 l 0,7.05034 q 0.39481,1.12805 1.12805,2.03049 0.78964,0.90245 1.74848,1.57928 0.95885,0.62043 2.0869,1.01525 1.12806,0.33841 2.19971,0.33841 z"
           style=""
           id="path8051" />
        <path
           d="m 202.49006,438.81744 0,-29.555 7.55796,0 0,29.555 -7.55796,0 z m 0,-33.6724 0,-7.50156 7.55796,0 0,7.50156 -7.55796,0 z"
           style=""
           id="path8053" />
        <path
           d="m 221.77184,398.77154 9.98327,14.89031 9.92688,-14.89031 8.404,0 -14.26988,20.30496 13.81866,19.74094 -8.404,0 -9.47566,-14.32628 -9.53205,14.32628 -8.4604,0 13.81866,-19.74094 -14.26988,-20.30496 8.4604,0 z"
           style=""
           id="path8055" />
      </g>
    </g>
  </g>
</svg>
